<svg width="60" height="63" viewBox="0 0 60 63" fill="none" xmlns="http://www.w3.org/2000/svg">
<path d="M29.2552 51.1724C28.5622 50.1508 27.7687 49.2011 26.8866 48.3374C26.4595 47.9487 26.0158 47.5449 25.561 47.1309C25.1061 46.717 22.384 44.6047 21.6568 44.1558L16.1696 50.185C16.2083 50.6822 16.1445 51.182 15.9822 51.6536C15.8199 52.1251 15.5626 52.5583 15.2262 52.9264C14.6112 53.6841 13.7221 54.1686 12.7519 54.2746C12.2308 54.3385 11.702 54.2883 11.2021 54.1276C10.7023 53.9669 10.2434 53.6994 9.85714 53.3437C9.47033 53.008 9.15475 52.5981 8.92905 52.1383C8.70335 51.6785 8.57211 51.1781 8.5431 50.6667C8.51407 50.1553 8.58786 49.6433 8.7601 49.1609C8.93233 48.6785 9.19951 48.2355 9.54585 47.8582C9.89984 47.4536 10.3408 47.1344 10.8357 46.9244C11.3306 46.7145 11.8666 46.6193 12.4035 46.6459L17.7251 40.7094C17.1454 40.0094 14.5931 37.3316 14.1201 36.8708C12.8334 35.588 11.3635 34.5032 9.7585 33.6517C11.5915 33.0416 12.8457 32.6552 13.5212 32.4924C14.1966 32.3297 16.2809 33.6756 19.7742 36.5303L40.1135 10.7053L50.0027 8.75325L48.6044 18.6355L25.341 41.5561C28.5681 44.6959 30.1301 46.6009 30.0272 47.2711C29.8515 48.5864 29.5937 49.8894 29.2552 51.1724Z" fill="white"/>
</svg>
